<svg xmlns="http://www.w3.org/2000/svg" width="48" height="48" viewBox="0 0 48 48"><defs><style>.cls-1{fill:#f6b445;}.cls-2{fill:#fed049;}.cls-3{fill:#f1f2f2;}.cls-4{fill:none;stroke:#474c54;stroke-linecap:round;stroke-linejoin:round;stroke-width:2px;}</style></defs><title>6-Email-sent</title><g id="_6-Email-sent" data-name="6-Email-sent"><path class="cls-1" d="M47,4V32a4.025,4.025,0,0,1-1.17,2.83L39,28,28,17l-.28-.43Z"/><path class="cls-2" d="M39,28l6.83,6.83A4.025,4.025,0,0,1,43,36H5a4.025,4.025,0,0,1-2.83-1.17L9,28,20,17l.25-.39L24,19l3.72-2.43L28,17Z"/><path class="cls-1" d="M20.25,16.61,20,17,9,28,2.17,34.83A4.025,4.025,0,0,1,1,32V6a3.944,3.944,0,0,1,.18-1.19L2,5Z"/><path class="cls-2" d="M47,4,27.72,16.57,24,19l-3.75-2.39L2,5l-.82-.19A4,4,0,0,1,5,2H42C46,2,47,4,47,4Z"/><circle class="cls-3" cx="35" cy="34" r="12"/><path class="cls-4" d="M42,2H5A4,4,0,0,0,1,6V32a4,4,0,0,0,4,4H19"/><line class="cls-4" x1="9" y1="28" x2="20" y2="17"/><path class="cls-4" d="M2,5,24,19,47,4V34a12,12,0,1,1-3.965-8.913"/><polyline class="cls-4" points="31 32 35 28 39 32"/><line class="cls-4" x1="35" y1="28" x2="35" y2="40"/></g></svg>