<svg xmlns="http://www.w3.org/2000/svg" version="1.1" xmlns:xlink="http://www.w3.org/1999/xlink" xmlns:svgjs="http://svgjs.dev/svgjs" width="1440" height="560" preserveAspectRatio="none" viewBox="0 0 1440 560"><g mask="url(&quot;#SvgjsMask1242&quot;)" fill="none"><rect width="1440" height="560" x="0" y="0" fill="rgba(245, 245, 245, 0.96)"></rect><path d="M65.94 -12.92L126.56 22.08L126.56 92.08L65.94 127.08L5.32 92.08L5.32 22.08zM126.56 92.08L187.19 127.08L187.19 197.08L126.56 232.08L65.94 197.08L65.94 127.08zM126.56 512.08L187.19 547.08L187.19 617.08L126.56 652.08L65.94 617.08L65.94 547.08zM247.81 92.08L308.43 127.08L308.43 197.08L247.81 232.08L187.19 197.08L187.19 127.08zM187.19 197.08L247.81 232.08L247.81 302.08L187.19 337.08L126.56 302.08L126.56 232.08zM308.43 -12.92L369.06 22.08L369.06 92.08L308.43 127.08L247.81 92.08L247.81 22.08zM369.06 92.08L429.68 127.08L429.68 197.08L369.06 232.08L308.43 197.08L308.43 127.08zM308.43 197.08L369.06 232.08L369.06 302.08L308.43 337.08L247.81 302.08L247.81 232.08zM490.3 92.08L550.93 127.08L550.93 197.08L490.3 232.08L429.68 197.08L429.68 127.08zM429.68 197.08L490.3 232.08L490.3 302.08L429.68 337.08L369.06 302.08L369.06 232.08zM490.3 512.08L550.93 547.08L550.93 617.08L490.3 652.08L429.68 617.08L429.68 547.08zM611.55 92.08L672.17 127.08L672.17 197.08L611.55 232.08L550.93 197.08L550.93 127.08zM550.93 197.08L611.55 232.08L611.55 302.08L550.93 337.08L490.3 302.08L490.3 232.08zM550.93 407.08L611.55 442.08L611.55 512.08L550.93 547.08L490.3 512.08L490.3 442.08zM611.55 512.08L672.17 547.08L672.17 617.08L611.55 652.08L550.93 617.08L550.93 547.08zM732.8 92.08L793.42 127.08L793.42 197.08L732.8 232.08L672.17 197.08L672.17 127.08zM672.17 407.08L732.8 442.08L732.8 512.08L672.17 547.08L611.55 512.08L611.55 442.08zM732.8 512.08L793.42 547.08L793.42 617.08L732.8 652.08L672.17 617.08L672.17 547.08zM854.05 302.08L914.67 337.08L914.67 407.08L854.05 442.08L793.42 407.08L793.42 337.08zM793.42 407.08L854.05 442.08L854.05 512.08L793.42 547.08L732.8 512.08L732.8 442.08zM975.29 302.08L1035.92 337.08L1035.92 407.08L975.29 442.08L914.67 407.08L914.67 337.08zM914.67 407.08L975.29 442.08L975.29 512.08L914.67 547.08L854.05 512.08L854.05 442.08zM975.29 512.08L1035.92 547.08L1035.92 617.08L975.29 652.08L914.67 617.08L914.67 547.08zM1096.54 92.08L1157.16 127.08L1157.16 197.08L1096.54 232.08L1035.92 197.08L1035.92 127.08zM1096.54 302.08L1157.16 337.08L1157.16 407.08L1096.54 442.08L1035.92 407.08L1035.92 337.08zM1035.92 407.08L1096.54 442.08L1096.54 512.08L1035.92 547.08L975.29 512.08L975.29 442.08zM1157.16 -12.92L1217.79 22.08L1217.79 92.08L1157.16 127.08L1096.54 92.08L1096.54 22.08zM1217.79 512.08L1278.41 547.08L1278.41 617.08L1217.79 652.08L1157.16 617.08L1157.16 547.08zM1339.03 302.08L1399.66 337.08L1399.66 407.08L1339.03 442.08L1278.41 407.08L1278.41 337.08zM1399.66 -12.92L1460.28 22.08L1460.28 92.08L1399.66 127.08L1339.03 92.08L1339.03 22.08zM1460.28 302.08L1520.9 337.08L1520.9 407.08L1460.28 442.08L1399.66 407.08L1399.66 337.08z" stroke="rgba(86, 154, 237, 1)" stroke-width="2"></path><path d="M58.94 -12.92 a7 7 0 1 0 14 0 a7 7 0 1 0 -14 0zM119.56 22.08 a7 7 0 1 0 14 0 a7 7 0 1 0 -14 0zM119.56 92.08 a7 7 0 1 0 14 0 a7 7 0 1 0 -14 0zM58.94 127.08 a7 7 0 1 0 14 0 a7 7 0 1 0 -14 0zM-1.68 92.08 a7 7 0 1 0 14 0 a7 7 0 1 0 -14 0zM-1.68 22.08 a7 7 0 1 0 14 0 a7 7 0 1 0 -14 0zM180.19 127.08 a7 7 0 1 0 14 0 a7 7 0 1 0 -14 0zM180.19 197.08 a7 7 0 1 0 14 0 a7 7 0 1 0 -14 0zM119.56 232.08 a7 7 0 1 0 14 0 a7 7 0 1 0 -14 0zM58.94 197.08 a7 7 0 1 0 14 0 a7 7 0 1 0 -14 0zM119.56 512.08 a7 7 0 1 0 14 0 a7 7 0 1 0 -14 0zM180.19 547.08 a7 7 0 1 0 14 0 a7 7 0 1 0 -14 0zM180.19 617.08 a7 7 0 1 0 14 0 a7 7 0 1 0 -14 0zM119.56 652.08 a7 7 0 1 0 14 0 a7 7 0 1 0 -14 0zM58.94 617.08 a7 7 0 1 0 14 0 a7 7 0 1 0 -14 0zM58.94 547.08 a7 7 0 1 0 14 0 a7 7 0 1 0 -14 0zM240.81 92.08 a7 7 0 1 0 14 0 a7 7 0 1 0 -14 0zM301.43 127.08 a7 7 0 1 0 14 0 a7 7 0 1 0 -14 0zM301.43 197.08 a7 7 0 1 0 14 0 a7 7 0 1 0 -14 0zM240.81 232.08 a7 7 0 1 0 14 0 a7 7 0 1 0 -14 0zM240.81 302.08 a7 7 0 1 0 14 0 a7 7 0 1 0 -14 0zM180.19 337.08 a7 7 0 1 0 14 0 a7 7 0 1 0 -14 0zM119.56 302.08 a7 7 0 1 0 14 0 a7 7 0 1 0 -14 0zM301.43 -12.92 a7 7 0 1 0 14 0 a7 7 0 1 0 -14 0zM362.06 22.08 a7 7 0 1 0 14 0 a7 7 0 1 0 -14 0zM362.06 92.08 a7 7 0 1 0 14 0 a7 7 0 1 0 -14 0zM240.81 22.08 a7 7 0 1 0 14 0 a7 7 0 1 0 -14 0zM422.68 127.08 a7 7 0 1 0 14 0 a7 7 0 1 0 -14 0zM422.68 197.08 a7 7 0 1 0 14 0 a7 7 0 1 0 -14 0zM362.06 232.08 a7 7 0 1 0 14 0 a7 7 0 1 0 -14 0zM362.06 302.08 a7 7 0 1 0 14 0 a7 7 0 1 0 -14 0zM301.43 337.08 a7 7 0 1 0 14 0 a7 7 0 1 0 -14 0zM483.3 92.08 a7 7 0 1 0 14 0 a7 7 0 1 0 -14 0zM543.93 127.08 a7 7 0 1 0 14 0 a7 7 0 1 0 -14 0zM543.93 197.08 a7 7 0 1 0 14 0 a7 7 0 1 0 -14 0zM483.3 232.08 a7 7 0 1 0 14 0 a7 7 0 1 0 -14 0zM483.3 302.08 a7 7 0 1 0 14 0 a7 7 0 1 0 -14 0zM422.68 337.08 a7 7 0 1 0 14 0 a7 7 0 1 0 -14 0zM483.3 512.08 a7 7 0 1 0 14 0 a7 7 0 1 0 -14 0zM543.93 547.08 a7 7 0 1 0 14 0 a7 7 0 1 0 -14 0zM543.93 617.08 a7 7 0 1 0 14 0 a7 7 0 1 0 -14 0zM483.3 652.08 a7 7 0 1 0 14 0 a7 7 0 1 0 -14 0zM422.68 617.08 a7 7 0 1 0 14 0 a7 7 0 1 0 -14 0zM422.68 547.08 a7 7 0 1 0 14 0 a7 7 0 1 0 -14 0zM604.55 92.08 a7 7 0 1 0 14 0 a7 7 0 1 0 -14 0zM665.17 127.08 a7 7 0 1 0 14 0 a7 7 0 1 0 -14 0zM665.17 197.08 a7 7 0 1 0 14 0 a7 7 0 1 0 -14 0zM604.55 232.08 a7 7 0 1 0 14 0 a7 7 0 1 0 -14 0zM604.55 302.08 a7 7 0 1 0 14 0 a7 7 0 1 0 -14 0zM543.93 337.08 a7 7 0 1 0 14 0 a7 7 0 1 0 -14 0zM543.93 407.08 a7 7 0 1 0 14 0 a7 7 0 1 0 -14 0zM604.55 442.08 a7 7 0 1 0 14 0 a7 7 0 1 0 -14 0zM604.55 512.08 a7 7 0 1 0 14 0 a7 7 0 1 0 -14 0zM483.3 442.08 a7 7 0 1 0 14 0 a7 7 0 1 0 -14 0zM665.17 547.08 a7 7 0 1 0 14 0 a7 7 0 1 0 -14 0zM665.17 617.08 a7 7 0 1 0 14 0 a7 7 0 1 0 -14 0zM604.55 652.08 a7 7 0 1 0 14 0 a7 7 0 1 0 -14 0zM725.8 92.08 a7 7 0 1 0 14 0 a7 7 0 1 0 -14 0zM786.42 127.08 a7 7 0 1 0 14 0 a7 7 0 1 0 -14 0zM786.42 197.08 a7 7 0 1 0 14 0 a7 7 0 1 0 -14 0zM725.8 232.08 a7 7 0 1 0 14 0 a7 7 0 1 0 -14 0zM665.17 407.08 a7 7 0 1 0 14 0 a7 7 0 1 0 -14 0zM725.8 442.08 a7 7 0 1 0 14 0 a7 7 0 1 0 -14 0zM725.8 512.08 a7 7 0 1 0 14 0 a7 7 0 1 0 -14 0zM786.42 547.08 a7 7 0 1 0 14 0 a7 7 0 1 0 -14 0zM786.42 617.08 a7 7 0 1 0 14 0 a7 7 0 1 0 -14 0zM725.8 652.08 a7 7 0 1 0 14 0 a7 7 0 1 0 -14 0zM847.05 302.08 a7 7 0 1 0 14 0 a7 7 0 1 0 -14 0zM907.67 337.08 a7 7 0 1 0 14 0 a7 7 0 1 0 -14 0zM907.67 407.08 a7 7 0 1 0 14 0 a7 7 0 1 0 -14 0zM847.05 442.08 a7 7 0 1 0 14 0 a7 7 0 1 0 -14 0zM786.42 407.08 a7 7 0 1 0 14 0 a7 7 0 1 0 -14 0zM786.42 337.08 a7 7 0 1 0 14 0 a7 7 0 1 0 -14 0zM847.05 512.08 a7 7 0 1 0 14 0 a7 7 0 1 0 -14 0zM968.29 302.08 a7 7 0 1 0 14 0 a7 7 0 1 0 -14 0zM1028.92 337.08 a7 7 0 1 0 14 0 a7 7 0 1 0 -14 0zM1028.92 407.08 a7 7 0 1 0 14 0 a7 7 0 1 0 -14 0zM968.29 442.08 a7 7 0 1 0 14 0 a7 7 0 1 0 -14 0zM968.29 512.08 a7 7 0 1 0 14 0 a7 7 0 1 0 -14 0zM907.67 547.08 a7 7 0 1 0 14 0 a7 7 0 1 0 -14 0zM1028.92 547.08 a7 7 0 1 0 14 0 a7 7 0 1 0 -14 0zM1028.92 617.08 a7 7 0 1 0 14 0 a7 7 0 1 0 -14 0zM968.29 652.08 a7 7 0 1 0 14 0 a7 7 0 1 0 -14 0zM907.67 617.08 a7 7 0 1 0 14 0 a7 7 0 1 0 -14 0zM1089.54 92.08 a7 7 0 1 0 14 0 a7 7 0 1 0 -14 0zM1150.16 127.08 a7 7 0 1 0 14 0 a7 7 0 1 0 -14 0zM1150.16 197.08 a7 7 0 1 0 14 0 a7 7 0 1 0 -14 0zM1089.54 232.08 a7 7 0 1 0 14 0 a7 7 0 1 0 -14 0zM1028.92 197.08 a7 7 0 1 0 14 0 a7 7 0 1 0 -14 0zM1028.92 127.08 a7 7 0 1 0 14 0 a7 7 0 1 0 -14 0zM1089.54 302.08 a7 7 0 1 0 14 0 a7 7 0 1 0 -14 0zM1150.16 337.08 a7 7 0 1 0 14 0 a7 7 0 1 0 -14 0zM1150.16 407.08 a7 7 0 1 0 14 0 a7 7 0 1 0 -14 0zM1089.54 442.08 a7 7 0 1 0 14 0 a7 7 0 1 0 -14 0zM1089.54 512.08 a7 7 0 1 0 14 0 a7 7 0 1 0 -14 0zM1150.16 -12.92 a7 7 0 1 0 14 0 a7 7 0 1 0 -14 0zM1210.79 22.08 a7 7 0 1 0 14 0 a7 7 0 1 0 -14 0zM1210.79 92.08 a7 7 0 1 0 14 0 a7 7 0 1 0 -14 0zM1089.54 22.08 a7 7 0 1 0 14 0 a7 7 0 1 0 -14 0zM1210.79 512.08 a7 7 0 1 0 14 0 a7 7 0 1 0 -14 0zM1271.41 547.08 a7 7 0 1 0 14 0 a7 7 0 1 0 -14 0zM1271.41 617.08 a7 7 0 1 0 14 0 a7 7 0 1 0 -14 0zM1210.79 652.08 a7 7 0 1 0 14 0 a7 7 0 1 0 -14 0zM1150.16 617.08 a7 7 0 1 0 14 0 a7 7 0 1 0 -14 0zM1150.16 547.08 a7 7 0 1 0 14 0 a7 7 0 1 0 -14 0zM1332.03 302.08 a7 7 0 1 0 14 0 a7 7 0 1 0 -14 0zM1392.66 337.08 a7 7 0 1 0 14 0 a7 7 0 1 0 -14 0zM1392.66 407.08 a7 7 0 1 0 14 0 a7 7 0 1 0 -14 0zM1332.03 442.08 a7 7 0 1 0 14 0 a7 7 0 1 0 -14 0zM1271.41 407.08 a7 7 0 1 0 14 0 a7 7 0 1 0 -14 0zM1271.41 337.08 a7 7 0 1 0 14 0 a7 7 0 1 0 -14 0zM1392.66 -12.92 a7 7 0 1 0 14 0 a7 7 0 1 0 -14 0zM1453.28 22.08 a7 7 0 1 0 14 0 a7 7 0 1 0 -14 0zM1453.28 92.08 a7 7 0 1 0 14 0 a7 7 0 1 0 -14 0zM1392.66 127.08 a7 7 0 1 0 14 0 a7 7 0 1 0 -14 0zM1332.03 92.08 a7 7 0 1 0 14 0 a7 7 0 1 0 -14 0zM1332.03 22.08 a7 7 0 1 0 14 0 a7 7 0 1 0 -14 0zM1453.28 302.08 a7 7 0 1 0 14 0 a7 7 0 1 0 -14 0zM1513.9 337.08 a7 7 0 1 0 14 0 a7 7 0 1 0 -14 0zM1513.9 407.08 a7 7 0 1 0 14 0 a7 7 0 1 0 -14 0zM1453.28 442.08 a7 7 0 1 0 14 0 a7 7 0 1 0 -14 0z" fill="rgba(86, 154, 237, 1)"></path><path d="M13.68 -57.75L80.37 -19.25L80.37 57.75L13.68 96.25L-53.01 57.75L-53.01 -19.25zM80.37 57.75L147.05 96.25L147.05 173.25L80.37 211.75L13.68 173.25L13.68 96.25zM80.37 288.75L147.05 327.25L147.05 404.25L80.37 442.75L13.68 404.25L13.68 327.25zM13.68 404.25L80.37 442.75L80.37 519.75L13.68 558.25L-53.01 519.75L-53.01 442.75zM80.37 519.75L147.05 558.25L147.05 635.25L80.37 673.75L13.68 635.25L13.68 558.25zM147.05 173.25L213.74 211.75L213.74 288.75L147.05 327.25L80.37 288.75L80.37 211.75zM213.74 519.75L280.42 558.25L280.42 635.25L213.74 673.75L147.05 635.25L147.05 558.25zM347.11 57.75L413.8 96.25L413.8 173.25L347.11 211.75L280.42 173.25L280.42 96.25zM280.42 173.25L347.11 211.75L347.11 288.75L280.42 327.25L213.74 288.75L213.74 211.75zM347.11 288.75L413.8 327.25L413.8 404.25L347.11 442.75L280.42 404.25L280.42 327.25zM480.48 57.75L547.17 96.25L547.17 173.25L480.48 211.75L413.8 173.25L413.8 96.25zM480.48 288.75L547.17 327.25L547.17 404.25L480.48 442.75L413.8 404.25L413.8 327.25zM413.8 404.25L480.48 442.75L480.48 519.75L413.8 558.25L347.11 519.75L347.11 442.75zM480.48 519.75L547.17 558.25L547.17 635.25L480.48 673.75L413.8 635.25L413.8 558.25zM613.85 288.75L680.54 327.25L680.54 404.25L613.85 442.75L547.17 404.25L547.17 327.25zM747.22 57.75L813.91 96.25L813.91 173.25L747.22 211.75L680.54 173.25L680.54 96.25zM680.54 173.25L747.22 211.75L747.22 288.75L680.54 327.25L613.85 288.75L613.85 211.75zM747.22 288.75L813.91 327.25L813.91 404.25L747.22 442.75L680.54 404.25L680.54 327.25zM680.54 404.25L747.22 442.75L747.22 519.75L680.54 558.25L613.85 519.75L613.85 442.75zM747.22 519.75L813.91 558.25L813.91 635.25L747.22 673.75L680.54 635.25L680.54 558.25zM813.91 -57.75L880.6 -19.25L880.6 57.75L813.91 96.25L747.22 57.75L747.22 -19.25zM813.91 173.25L880.6 211.75L880.6 288.75L813.91 327.25L747.22 288.75L747.22 211.75zM1013.97 57.75L1080.65 96.25L1080.65 173.25L1013.97 211.75L947.28 173.25L947.28 96.25zM947.28 173.25L1013.97 211.75L1013.97 288.75L947.28 327.25L880.6 288.75L880.6 211.75zM1013.97 288.75L1080.65 327.25L1080.65 404.25L1013.97 442.75L947.28 404.25L947.28 327.25zM947.28 404.25L1013.97 442.75L1013.97 519.75L947.28 558.25L880.6 519.75L880.6 442.75zM1013.97 519.75L1080.65 558.25L1080.65 635.25L1013.97 673.75L947.28 635.25L947.28 558.25zM1080.65 404.25L1147.34 442.75L1147.34 519.75L1080.65 558.25L1013.97 519.75L1013.97 442.75zM1280.71 57.75L1347.4 96.25L1347.4 173.25L1280.71 211.75L1214.03 173.25L1214.03 96.25zM1214.03 173.25L1280.71 211.75L1280.71 288.75L1214.03 327.25L1147.34 288.75L1147.34 211.75zM1280.71 288.75L1347.4 327.25L1347.4 404.25L1280.71 442.75L1214.03 404.25L1214.03 327.25zM1214.03 404.25L1280.71 442.75L1280.71 519.75L1214.03 558.25L1147.34 519.75L1147.34 442.75zM1280.71 519.75L1347.4 558.25L1347.4 635.25L1280.71 673.75L1214.03 635.25L1214.03 558.25zM1414.08 57.75L1480.77 96.25L1480.77 173.25L1414.08 211.75L1347.4 173.25L1347.4 96.25zM1347.4 404.25L1414.08 442.75L1414.08 519.75L1347.4 558.25L1280.71 519.75L1280.71 442.75zM1414.08 519.75L1480.77 558.25L1480.77 635.25L1414.08 673.75L1347.4 635.25L1347.4 558.25z" stroke="rgba(86, 154, 237, 0.96)" stroke-width="2"></path></g><defs><mask id="SvgjsMask1242"><rect width="1440" height="560" fill="#ffffff"></rect></mask></defs></svg>