<svg xmlns="http://www.w3.org/2000/svg" version="1.1" xmlns:xlink="http://www.w3.org/1999/xlink" xmlns:svgjs="http://svgjs.dev/svgjs" width="1440" height="560" preserveAspectRatio="none" viewBox="0 0 1440 560"><g mask="url(&quot;#SvgjsMask1055&quot;)" fill="none"><path d="M3.81 -3.22L75.69 38.28L75.69 121.28L3.81 162.78L-68.07 121.28L-68.07 38.28zM75.69 370.28L147.57 411.78L147.57 494.78L75.69 536.28L3.81 494.78L3.81 411.78zM147.57 -3.22L219.46 38.28L219.46 121.28L147.57 162.78L75.69 121.28L75.69 38.28zM219.46 370.28L291.34 411.78L291.34 494.78L219.46 536.28L147.57 494.78L147.57 411.78zM291.34 245.78L363.22 287.28L363.22 370.28L291.34 411.78L219.46 370.28L219.46 287.28zM435.1 -3.22L506.99 38.28L506.99 121.28L435.1 162.78L363.22 121.28L363.22 38.28zM435.1 245.78L506.99 287.28L506.99 370.28L435.1 411.78L363.22 370.28L363.22 287.28zM435.1 494.78L506.99 536.28L506.99 619.28L435.1 660.78L363.22 619.28L363.22 536.28zM794.51 121.28L866.4 162.78L866.4 245.78L794.51 287.28L722.63 245.78L722.63 162.78zM794.51 370.28L866.4 411.78L866.4 494.78L794.51 536.28L722.63 494.78L722.63 411.78zM722.63 494.78L794.51 536.28L794.51 619.28L722.63 660.78L650.75 619.28L650.75 536.28zM1010.16 494.78L1082.04 536.28L1082.04 619.28L1010.16 660.78L938.28 619.28L938.28 536.28zM1153.92 -3.22L1225.81 38.28L1225.81 121.28L1153.92 162.78L1082.04 121.28L1082.04 38.28zM1153.92 245.78L1225.81 287.28L1225.81 370.28L1153.92 411.78L1082.04 370.28L1082.04 287.28zM1153.92 494.78L1225.81 536.28L1225.81 619.28L1153.92 660.78L1082.04 619.28L1082.04 536.28zM1297.69 245.78L1369.57 287.28L1369.57 370.28L1297.69 411.78L1225.81 370.28L1225.81 287.28zM1369.57 370.28L1441.45 411.78L1441.45 494.78L1369.57 536.28L1297.69 494.78L1297.69 411.78zM1297.69 494.78L1369.57 536.28L1369.57 619.28L1297.69 660.78L1225.81 619.28L1225.81 536.28zM1513.34 121.28L1585.22 162.78L1585.22 245.78L1513.34 287.28L1441.45 245.78L1441.45 162.78zM1441.45 245.78L1513.34 287.28L1513.34 370.28L1441.45 411.78L1369.57 370.28L1369.57 287.28z" stroke="rgba(86, 154, 237, 1)" stroke-width="2"></path><path d="M-4.49 -3.22 a8.3 8.3 0 1 0 16.6 0 a8.3 8.3 0 1 0 -16.6 0zM67.39 38.28 a8.3 8.3 0 1 0 16.6 0 a8.3 8.3 0 1 0 -16.6 0zM67.39 121.28 a8.3 8.3 0 1 0 16.6 0 a8.3 8.3 0 1 0 -16.6 0zM-4.49 162.78 a8.3 8.3 0 1 0 16.6 0 a8.3 8.3 0 1 0 -16.6 0zM-76.37 121.28 a8.3 8.3 0 1 0 16.6 0 a8.3 8.3 0 1 0 -16.6 0zM-76.37 38.28 a8.3 8.3 0 1 0 16.6 0 a8.3 8.3 0 1 0 -16.6 0zM67.39 370.28 a8.3 8.3 0 1 0 16.6 0 a8.3 8.3 0 1 0 -16.6 0zM139.27 411.78 a8.3 8.3 0 1 0 16.6 0 a8.3 8.3 0 1 0 -16.6 0zM139.27 494.78 a8.3 8.3 0 1 0 16.6 0 a8.3 8.3 0 1 0 -16.6 0zM67.39 536.28 a8.3 8.3 0 1 0 16.6 0 a8.3 8.3 0 1 0 -16.6 0zM-4.49 494.78 a8.3 8.3 0 1 0 16.6 0 a8.3 8.3 0 1 0 -16.6 0zM-4.49 411.78 a8.3 8.3 0 1 0 16.6 0 a8.3 8.3 0 1 0 -16.6 0zM139.27 -3.22 a8.3 8.3 0 1 0 16.6 0 a8.3 8.3 0 1 0 -16.6 0zM211.16 38.28 a8.3 8.3 0 1 0 16.6 0 a8.3 8.3 0 1 0 -16.6 0zM211.16 121.28 a8.3 8.3 0 1 0 16.6 0 a8.3 8.3 0 1 0 -16.6 0zM139.27 162.78 a8.3 8.3 0 1 0 16.6 0 a8.3 8.3 0 1 0 -16.6 0zM211.16 370.28 a8.3 8.3 0 1 0 16.6 0 a8.3 8.3 0 1 0 -16.6 0zM283.04 411.78 a8.3 8.3 0 1 0 16.6 0 a8.3 8.3 0 1 0 -16.6 0zM283.04 494.78 a8.3 8.3 0 1 0 16.6 0 a8.3 8.3 0 1 0 -16.6 0zM211.16 536.28 a8.3 8.3 0 1 0 16.6 0 a8.3 8.3 0 1 0 -16.6 0zM283.04 245.78 a8.3 8.3 0 1 0 16.6 0 a8.3 8.3 0 1 0 -16.6 0zM354.92 287.28 a8.3 8.3 0 1 0 16.6 0 a8.3 8.3 0 1 0 -16.6 0zM354.92 370.28 a8.3 8.3 0 1 0 16.6 0 a8.3 8.3 0 1 0 -16.6 0zM211.16 287.28 a8.3 8.3 0 1 0 16.6 0 a8.3 8.3 0 1 0 -16.6 0zM426.8 -3.22 a8.3 8.3 0 1 0 16.6 0 a8.3 8.3 0 1 0 -16.6 0zM498.69 38.28 a8.3 8.3 0 1 0 16.6 0 a8.3 8.3 0 1 0 -16.6 0zM498.69 121.28 a8.3 8.3 0 1 0 16.6 0 a8.3 8.3 0 1 0 -16.6 0zM426.8 162.78 a8.3 8.3 0 1 0 16.6 0 a8.3 8.3 0 1 0 -16.6 0zM354.92 121.28 a8.3 8.3 0 1 0 16.6 0 a8.3 8.3 0 1 0 -16.6 0zM354.92 38.28 a8.3 8.3 0 1 0 16.6 0 a8.3 8.3 0 1 0 -16.6 0zM426.8 245.78 a8.3 8.3 0 1 0 16.6 0 a8.3 8.3 0 1 0 -16.6 0zM498.69 287.28 a8.3 8.3 0 1 0 16.6 0 a8.3 8.3 0 1 0 -16.6 0zM498.69 370.28 a8.3 8.3 0 1 0 16.6 0 a8.3 8.3 0 1 0 -16.6 0zM426.8 411.78 a8.3 8.3 0 1 0 16.6 0 a8.3 8.3 0 1 0 -16.6 0zM426.8 494.78 a8.3 8.3 0 1 0 16.6 0 a8.3 8.3 0 1 0 -16.6 0zM498.69 536.28 a8.3 8.3 0 1 0 16.6 0 a8.3 8.3 0 1 0 -16.6 0zM498.69 619.28 a8.3 8.3 0 1 0 16.6 0 a8.3 8.3 0 1 0 -16.6 0zM426.8 660.78 a8.3 8.3 0 1 0 16.6 0 a8.3 8.3 0 1 0 -16.6 0zM354.92 619.28 a8.3 8.3 0 1 0 16.6 0 a8.3 8.3 0 1 0 -16.6 0zM354.92 536.28 a8.3 8.3 0 1 0 16.6 0 a8.3 8.3 0 1 0 -16.6 0zM786.21 121.28 a8.3 8.3 0 1 0 16.6 0 a8.3 8.3 0 1 0 -16.6 0zM858.1 162.78 a8.3 8.3 0 1 0 16.6 0 a8.3 8.3 0 1 0 -16.6 0zM858.1 245.78 a8.3 8.3 0 1 0 16.6 0 a8.3 8.3 0 1 0 -16.6 0zM786.21 287.28 a8.3 8.3 0 1 0 16.6 0 a8.3 8.3 0 1 0 -16.6 0zM714.33 245.78 a8.3 8.3 0 1 0 16.6 0 a8.3 8.3 0 1 0 -16.6 0zM714.33 162.78 a8.3 8.3 0 1 0 16.6 0 a8.3 8.3 0 1 0 -16.6 0zM786.21 370.28 a8.3 8.3 0 1 0 16.6 0 a8.3 8.3 0 1 0 -16.6 0zM858.1 411.78 a8.3 8.3 0 1 0 16.6 0 a8.3 8.3 0 1 0 -16.6 0zM858.1 494.78 a8.3 8.3 0 1 0 16.6 0 a8.3 8.3 0 1 0 -16.6 0zM786.21 536.28 a8.3 8.3 0 1 0 16.6 0 a8.3 8.3 0 1 0 -16.6 0zM714.33 494.78 a8.3 8.3 0 1 0 16.6 0 a8.3 8.3 0 1 0 -16.6 0zM714.33 411.78 a8.3 8.3 0 1 0 16.6 0 a8.3 8.3 0 1 0 -16.6 0zM786.21 619.28 a8.3 8.3 0 1 0 16.6 0 a8.3 8.3 0 1 0 -16.6 0zM714.33 660.78 a8.3 8.3 0 1 0 16.6 0 a8.3 8.3 0 1 0 -16.6 0zM642.45 619.28 a8.3 8.3 0 1 0 16.6 0 a8.3 8.3 0 1 0 -16.6 0zM642.45 536.28 a8.3 8.3 0 1 0 16.6 0 a8.3 8.3 0 1 0 -16.6 0zM1001.86 494.78 a8.3 8.3 0 1 0 16.6 0 a8.3 8.3 0 1 0 -16.6 0zM1073.74 536.28 a8.3 8.3 0 1 0 16.6 0 a8.3 8.3 0 1 0 -16.6 0zM1073.74 619.28 a8.3 8.3 0 1 0 16.6 0 a8.3 8.3 0 1 0 -16.6 0zM1001.86 660.78 a8.3 8.3 0 1 0 16.6 0 a8.3 8.3 0 1 0 -16.6 0zM929.98 619.28 a8.3 8.3 0 1 0 16.6 0 a8.3 8.3 0 1 0 -16.6 0zM929.98 536.28 a8.3 8.3 0 1 0 16.6 0 a8.3 8.3 0 1 0 -16.6 0zM1145.62 -3.22 a8.3 8.3 0 1 0 16.6 0 a8.3 8.3 0 1 0 -16.6 0zM1217.51 38.28 a8.3 8.3 0 1 0 16.6 0 a8.3 8.3 0 1 0 -16.6 0zM1217.51 121.28 a8.3 8.3 0 1 0 16.6 0 a8.3 8.3 0 1 0 -16.6 0zM1145.62 162.78 a8.3 8.3 0 1 0 16.6 0 a8.3 8.3 0 1 0 -16.6 0zM1073.74 121.28 a8.3 8.3 0 1 0 16.6 0 a8.3 8.3 0 1 0 -16.6 0zM1073.74 38.28 a8.3 8.3 0 1 0 16.6 0 a8.3 8.3 0 1 0 -16.6 0zM1145.62 245.78 a8.3 8.3 0 1 0 16.6 0 a8.3 8.3 0 1 0 -16.6 0zM1217.51 287.28 a8.3 8.3 0 1 0 16.6 0 a8.3 8.3 0 1 0 -16.6 0zM1217.51 370.28 a8.3 8.3 0 1 0 16.6 0 a8.3 8.3 0 1 0 -16.6 0zM1145.62 411.78 a8.3 8.3 0 1 0 16.6 0 a8.3 8.3 0 1 0 -16.6 0zM1073.74 370.28 a8.3 8.3 0 1 0 16.6 0 a8.3 8.3 0 1 0 -16.6 0zM1073.74 287.28 a8.3 8.3 0 1 0 16.6 0 a8.3 8.3 0 1 0 -16.6 0zM1145.62 494.78 a8.3 8.3 0 1 0 16.6 0 a8.3 8.3 0 1 0 -16.6 0zM1217.51 536.28 a8.3 8.3 0 1 0 16.6 0 a8.3 8.3 0 1 0 -16.6 0zM1217.51 619.28 a8.3 8.3 0 1 0 16.6 0 a8.3 8.3 0 1 0 -16.6 0zM1145.62 660.78 a8.3 8.3 0 1 0 16.6 0 a8.3 8.3 0 1 0 -16.6 0zM1289.39 245.78 a8.3 8.3 0 1 0 16.6 0 a8.3 8.3 0 1 0 -16.6 0zM1361.27 287.28 a8.3 8.3 0 1 0 16.6 0 a8.3 8.3 0 1 0 -16.6 0zM1361.27 370.28 a8.3 8.3 0 1 0 16.6 0 a8.3 8.3 0 1 0 -16.6 0zM1289.39 411.78 a8.3 8.3 0 1 0 16.6 0 a8.3 8.3 0 1 0 -16.6 0zM1433.15 411.78 a8.3 8.3 0 1 0 16.6 0 a8.3 8.3 0 1 0 -16.6 0zM1433.15 494.78 a8.3 8.3 0 1 0 16.6 0 a8.3 8.3 0 1 0 -16.6 0zM1361.27 536.28 a8.3 8.3 0 1 0 16.6 0 a8.3 8.3 0 1 0 -16.6 0zM1289.39 494.78 a8.3 8.3 0 1 0 16.6 0 a8.3 8.3 0 1 0 -16.6 0zM1361.27 619.28 a8.3 8.3 0 1 0 16.6 0 a8.3 8.3 0 1 0 -16.6 0zM1289.39 660.78 a8.3 8.3 0 1 0 16.6 0 a8.3 8.3 0 1 0 -16.6 0zM1505.04 121.28 a8.3 8.3 0 1 0 16.6 0 a8.3 8.3 0 1 0 -16.6 0zM1576.92 162.78 a8.3 8.3 0 1 0 16.6 0 a8.3 8.3 0 1 0 -16.6 0zM1576.92 245.78 a8.3 8.3 0 1 0 16.6 0 a8.3 8.3 0 1 0 -16.6 0zM1505.04 287.28 a8.3 8.3 0 1 0 16.6 0 a8.3 8.3 0 1 0 -16.6 0zM1433.15 245.78 a8.3 8.3 0 1 0 16.6 0 a8.3 8.3 0 1 0 -16.6 0zM1433.15 162.78 a8.3 8.3 0 1 0 16.6 0 a8.3 8.3 0 1 0 -16.6 0zM1505.04 370.28 a8.3 8.3 0 1 0 16.6 0 a8.3 8.3 0 1 0 -16.6 0z" fill="rgba(86, 154, 237, 1)"></path><path d="M184.84 437.57L287.04 496.57L287.04 614.57L184.84 673.57L82.65 614.57L82.65 496.57zM287.04 260.57L389.23 319.57L389.23 437.57L287.04 496.57L184.84 437.57L184.84 319.57zM389.23 437.57L491.43 496.57L491.43 614.57L389.23 673.57L287.04 614.57L287.04 496.57zM491.43 260.57L593.62 319.57L593.62 437.57L491.43 496.57L389.23 437.57L389.23 319.57zM593.62 437.57L695.81 496.57L695.81 614.57L593.62 673.57L491.43 614.57L491.43 496.57zM695.81 -93.43L798.01 -34.43L798.01 83.57L695.81 142.57L593.62 83.57L593.62 -34.43zM798.01 83.57L900.2 142.57L900.2 260.57L798.01 319.57L695.81 260.57L695.81 142.57zM798.01 437.57L900.2 496.57L900.2 614.57L798.01 673.57L695.81 614.57L695.81 496.57zM900.2 -93.43L1002.4 -34.43L1002.4 83.57L900.2 142.57L798.01 83.57L798.01 -34.43zM1002.4 83.57L1104.59 142.57L1104.59 260.57L1002.4 319.57L900.2 260.57L900.2 142.57zM1002.4 437.57L1104.59 496.57L1104.59 614.57L1002.4 673.57L900.2 614.57L900.2 496.57zM1104.59 -93.43L1206.78 -34.43L1206.78 83.57L1104.59 142.57L1002.4 83.57L1002.4 -34.43zM1206.78 83.57L1308.98 142.57L1308.98 260.57L1206.78 319.57L1104.59 260.57L1104.59 142.57zM1104.59 260.57L1206.78 319.57L1206.78 437.57L1104.59 496.57L1002.4 437.57L1002.4 319.57zM1308.98 260.57L1411.17 319.57L1411.17 437.57L1308.98 496.57L1206.78 437.57L1206.78 319.57zM1411.17 437.57L1513.36 496.57L1513.36 614.57L1411.17 673.57L1308.98 614.57L1308.98 496.57zM1513.36 -93.43L1615.56 -34.43L1615.56 83.57L1513.36 142.57L1411.17 83.57L1411.17 -34.43z" stroke="rgba(86, 154, 237, 0.96)" stroke-width="2"></path></g><defs><mask id="SvgjsMask1055"><rect width="1440" height="560" fill="#ffffff"></rect></mask></defs></svg>