<svg class="svg-icon" style="width: 1em; height: 1em;vertical-align: middle;fill: currentColor;overflow: hidden;" viewBox="0 0 1024 1024" version="1.1" xmlns="http://www.w3.org/2000/svg"><path d="M557.314344 896.078128h290.428484l-1.666734-163.339979c-50.002035-115.421363-169.381892-182.92411-288.345067-187.299288h-0.208341l-0.208342 350.639267z" fill="#FB8C00" /><path d="M266.88586 810.449644v85.628484h290.428484V545.438861c-49.168667-1.875076-98.128993 7.291963-142.297457 28.126144-85.628484 50.002035-138.963988 125.838454-148.131027 236.884639z" fill="#FFA726" /><path d="M557.314344 536.688505c-108.546083 0-196.466328-87.920244-196.466328-196.466328 0-108.337742 87.711902-196.257986 196.257986-196.257986v392.724314h0.208342z" fill="#FFB74D" /><path d="M753.57233 340.222177c0 108.337742-87.711902 196.257986-196.049644 196.466328h-0.208342V143.964191h0.625025c108.1294 0.416684 195.63296 88.336928 195.632961 196.257986z" fill="#FFA726" /><path d="M411.058393 661.901933c0 64.794303-52.502136 117.504781-117.504782 117.504781-64.794303 0-117.296439-52.502136-117.296439-117.504781 0-64.794303 52.502136-117.296439 117.296439-117.29644 65.002645 0 117.504781 52.502136 117.504782 117.29644z" fill="#0288D1" /><path d="M388.349135 661.901933c0 52.293795-42.293388 94.587182-94.587182 94.587182-52.293795 0-94.37884-42.293388-94.37884-94.587182 0-52.085453 42.293388-94.37884 94.37884-94.37884 52.085453-0.208342 94.587182 42.293388 94.587182 94.37884z" fill="#B3E5FC" /><path d="M309.179247 598.357681h-28.126144v49.168667h-45.835199v28.334486h45.835199V725.029502h28.334486v-49.168668h45.835198v-28.126144h-45.835198c-0.208342-0.208342-0.208342-35.834791-0.208342-49.377009z" fill="#212121" /><path d="M309.179247 598.357681h-28.126144v49.168667h-45.835199v28.334486h45.835199V725.029502h28.334486v-49.168668h45.835198v-28.126144h-45.835198c-0.208342-0.208342-0.208342-35.834791-0.208342-49.377009z" fill="#0288D1" /></svg>