<svg xmlns="http://www.w3.org/2000/svg" shape-rendering="geometricPrecision" text-rendering="geometricPrecision" image-rendering="optimizeQuality" fill-rule="evenodd" clip-rule="evenodd" viewBox="0 0 478 511.69"><path fill-rule="nonzero" d="M410.61 370.6H182.6c-87.56 0-133.12-17.13-157.98-56.13C.81 277.16 0 224.19 0 148.25V20.89C0 9.37 9.37 0 20.89 0c11.53 0 20.9 9.37 20.9 20.89v127.36c0 68.91.59 116.76 17.91 143.88 16.24 25.48 51.59 36.68 122.9 36.68h229.17L283.85 216.83c-8.64-7.56-9.51-20.74-1.96-29.38 7.56-8.64 20.74-9.51 29.38-1.95l153.79 134.61 3.22 3.41c6.82 8.19 10.08 18.31 9.69 28.22-.44 10.26-4.74 20.26-12.85 27.8-50.13 43.1-102.81 85.13-153.85 127.37-8.88 7.34-22.04 6.1-29.38-2.78-7.33-8.88-6.09-22.04 2.79-29.38L410.61 370.6z"/></svg>